# xmcd
#
# Track frame offsets: 
#        150
#        9529
#        39504
#        69534
#        87757
#        113256
#        144585
#        182983
#        200138
#        237573
#
# Disc length: 3426 seconds
#
# Revision: 2
# Processed by: cddbd v1.5.2PL0 Copyright (c) Steve Scherf et al.
# Submitted via: ExactAudioCopy v1.3
#
DISCID=870d600a
DTITLE=Opeth - Heritage
DYEAR=2011
DGENRE=Progressive Rock
TTITLE0=Heritage
TTITLE1=The Devil's Orchard
TTITLE2=I Feel The Dark
TTITLE3=Slither
TTITLE4=Nepenthe
TTITLE5=Häxprocess
TTITLE6=Famine
TTITLE7=The Lines In My Hands
TTITLE8=Folklore
TTITLE9=Marrow Of The Earth
EXTD=
EXTT0=
EXTT1=
EXTT2=
EXTT3=
EXTT4=
EXTT5=
EXTT6=
EXTT7=
EXTT8=
EXTT9=
PLAYORDER=
